<svg id="Layer_1" data-name="Layer 1" xmlns="http://www.w3.org/2000/svg" viewBox="0 0 408.45 74.24"><defs><style>.cls-1{fill:#7991ad;}</style></defs><path class="cls-1" d="M81.67,55.29H67.84V52.48A2.84,2.84,0,0,0,65,49.66H22.79A2.84,2.84,0,0,0,20,52.48V63.23a2.84,2.84,0,0,0,2.82,2.82H65A16.61,16.61,0,0,1,81.67,82.69V93.44A16.61,16.61,0,0,1,65,110.08H22.79A16.61,16.61,0,0,1,6.14,93.44V90.62H20v2.82a2.84,2.84,0,0,0,2.82,2.82H65a2.84,2.84,0,0,0,2.81-2.82V82.69A2.84,2.84,0,0,0,65,79.87H22.79A16.61,16.61,0,0,1,6.14,63.23V52.48A16.61,16.61,0,0,1,22.79,35.84H65A16.61,16.61,0,0,1,81.67,52.48Z" transform="translate(-6.14 -35.84)"/><path class="cls-1" d="M153.22,35.84a16.61,16.61,0,0,1,16.64,16.64v41a16.61,16.61,0,0,1-16.64,16.64H111A16.61,16.61,0,0,1,94.33,93.44v-41A16.61,16.61,0,0,1,111,35.84ZM111,49.66a2.84,2.84,0,0,0-2.82,2.82v41A2.84,2.84,0,0,0,111,96.26h42.24A2.84,2.84,0,0,0,156,93.44v-41a2.84,2.84,0,0,0-2.81-2.82Z" transform="translate(-6.14 -35.84)"/><path class="cls-1" d="M256.9,52.48v57.6H243.07V52.48a2.84,2.84,0,0,0-2.81-2.82H198a2.84,2.84,0,0,0-2.81,2.82v57.6H181.37V35.84h58.89A16.61,16.61,0,0,1,256.9,52.48Z" transform="translate(-6.14 -35.84)"/><path class="cls-1" d="M345.73,52.48v57.6H286.85a16.6,16.6,0,0,1-16.64-16.64V66.05H331.9V52.48a2.84,2.84,0,0,0-2.81-2.82H270.21V35.84h58.88A16.61,16.61,0,0,1,345.73,52.48ZM331.9,79.87H284V93.44a2.84,2.84,0,0,0,2.82,2.82h45Z" transform="translate(-6.14 -35.84)"/><path class="cls-1" d="M414.59,35.84V49.66H373.12a2.84,2.84,0,0,0-2.82,2.82v57.6H356.48V52.48a16.6,16.6,0,0,1,16.64-16.64Z" transform="translate(-6.14 -35.84)"/></svg>